<svg width="105" height="32" viewBox="0 0 105 32" fill="none" xmlns="http://www.w3.org/2000/svg">
<path d="M14.0344 19.1969C14.0344 20.7433 13.6127 21.9304 12.7692 22.7582C11.9414 23.5861 10.7777 24 9.27818 24H7.02893C5.18579 24 3.87372 23.6798 3.09273 23.0394C2.32736 22.399 1.94467 21.29 1.94467 19.7124V7.31801H8.99703C10.5902 7.31801 11.7852 7.71632 12.5818 8.51293C13.394 9.30954 13.8001 10.4342 13.8001 11.8868C13.8001 12.7303 13.5814 13.4488 13.1441 14.0424C12.7224 14.6359 12.2538 15.0576 11.7383 15.3076C13.2691 16.0261 14.0344 17.3225 14.0344 19.1969ZM8.7393 13.8315C9.94203 13.8315 10.5434 13.2301 10.5434 12.0274C10.5434 10.8247 9.94203 10.2233 8.7393 10.2233H5.20141V13.8315H8.7393ZM10.7777 19.0329C10.7777 18.2831 10.6449 17.7208 10.3794 17.3459C10.1138 16.9555 9.63744 16.7602 8.95017 16.7602H5.20141V19.3843C5.20141 20.0248 5.3576 20.4699 5.67 20.7198C5.99802 20.9698 6.52909 21.0947 7.26322 21.0947H8.95017C10.1685 21.0947 10.7777 20.4074 10.7777 19.0329ZM46.355 24H42.9577L42.0205 21.1181H36.4208L35.5071 24H32.1097L37.4517 8.7238C37.686 8.19272 37.9438 7.82566 38.2249 7.6226C38.5217 7.41954 38.8809 7.31801 39.3027 7.31801C39.7244 7.31801 40.0602 7.41173 40.3102 7.59917C40.5757 7.78661 40.81 8.16149 41.0131 8.7238L46.355 24ZM41.2708 18.3769L39.3027 11.7697L37.2409 18.3769H41.2708ZM61.6475 7.31801V22.3131C61.6475 22.8285 61.4913 23.2737 61.1789 23.6486C60.8665 24.0078 60.4995 24.1874 60.0777 24.1874C59 24.1874 58.1174 23.5626 57.4302 22.3131L51.6665 13.2926V24H48.4097V7.31801H51.5493L58.3908 18.2363V7.31801H61.6475ZM63.9956 16.151V14.0892C63.9956 11.9181 64.5658 10.2233 65.706 9.00496C66.8462 7.78661 68.4239 7.17744 70.4388 7.17744C72.4538 7.17744 74.0704 7.78661 75.2888 9.00496C76.1479 9.86405 76.5774 11.1527 76.5774 12.8709H73.5315C73.5315 11.0121 72.5397 10.0827 70.556 10.0827C69.9624 10.0827 69.4548 10.1999 69.033 10.4342C68.6269 10.6528 68.3223 10.9106 68.1193 11.2074C67.9162 11.5041 67.76 11.9415 67.6507 12.5194C67.5413 13.0974 67.4789 13.5816 67.4632 13.9721C67.4476 14.3626 67.4398 14.8858 67.4398 15.5419C67.4398 16.1979 67.4398 16.6431 67.4398 16.8774C67.4554 17.096 67.4789 17.4631 67.5101 17.9786C67.557 18.4784 67.6194 18.8376 67.6975 19.0563C67.7912 19.275 67.9162 19.5562 68.0724 19.8998C68.2442 20.2434 68.4551 20.4855 68.705 20.6261C69.3454 21.0322 70.0717 21.2353 70.884 21.2353C72.2429 21.2353 73.2035 20.6574 73.7658 19.5015V18.3769H71.7509V15.659H76.554V20.6964C76.0698 21.8367 75.3044 22.6957 74.2579 23.2737C73.2113 23.8516 72.0242 24.1406 70.6965 24.1406C68.3379 24.1406 66.6276 23.4845 65.5654 22.1725C64.5189 20.8448 63.9956 18.8376 63.9956 16.151ZM82.9203 20.8604C83.1702 21.0947 83.2952 21.6024 83.2952 22.3833C83.2952 23.1643 83.1702 23.6798 82.9203 23.9297C82.686 24.1796 82.1783 24.3046 81.3973 24.3046C80.6164 24.3046 80.1009 24.1796 79.851 23.9297C79.6011 23.6798 79.4761 23.1643 79.4761 22.3833C79.4761 21.6024 79.6011 21.0947 79.851 20.8604C80.1009 20.6105 80.6164 20.4855 81.3973 20.4855C82.1783 20.4855 82.686 20.6105 82.9203 20.8604ZM88.1667 5.51392C88.9008 5.51392 89.3773 5.63107 89.5959 5.86537C89.8146 6.08405 89.9239 6.56045 89.9239 7.29458C89.9239 8.0131 89.8068 8.4895 89.5725 8.7238C89.3538 8.94248 88.8774 9.05182 88.1433 9.05182C87.4248 9.05182 86.9484 8.93467 86.7141 8.70037C86.4954 8.46607 86.3861 7.98967 86.3861 7.27115C86.3861 6.55264 86.4954 6.08405 86.7141 5.86537C86.9484 5.63107 87.4326 5.51392 88.1667 5.51392ZM89.6662 24H86.6204V11.1136H89.6662V24ZM103.452 24H100.406V15.4481C100.406 14.6828 100.25 14.1595 99.9376 13.8783C99.6252 13.5972 99.1879 13.4566 98.6255 13.4566L95.8843 14.6047V24H92.8384V10.6216H95.1111L95.814 12.2148L99.5627 10.481C100.609 10.481 101.515 10.8715 102.281 11.6525C103.062 12.4179 103.452 13.5425 103.452 15.0264V24Z" fill="#016A70"/>
<mask id="mask0_1_2940" style="mask-type:alpha" maskUnits="userSpaceOnUse" x="7" y="27" width="93" height="5">
<rect width="92.6777" height="4.16529" transform="matrix(-1 0 0 1 99.707 27.0742)" fill="#C4C4C4"/>
</mask>
<g mask="url(#mask0_1_2940)">
<path d="M84.5202 26.5577L84.2434 26.5093L84.782 26.4399L84.5238 26.3891C84.2649 26.3895 83.9295 26.4657 83.747 26.4252C83.7247 26.386 84.0066 26.3735 84.0785 26.3423C84.1422 26.3103 84.1941 26.2785 84.2338 26.2473C84.0928 26.2476 83.9378 26.2552 83.7779 26.2695C83.563 26.2929 83.3521 26.3042 83.1687 26.3023C82.7935 26.3086 82.4311 26.3023 82.0232 26.3037L82.1589 26.2094L81.6332 26.2315C81.5775 26.2387 81.5111 26.2271 81.4563 26.236C81.0008 26.3112 80.808 26.2702 80.5893 26.2363C80.5444 26.2275 80.4904 26.2209 80.4287 26.2167C79.8209 26.2347 79.2729 26.3401 78.7256 26.3942C78.6226 26.408 78.5238 26.4258 78.4362 26.4461C78.2458 26.4858 78.0341 26.5181 77.8203 26.5403C77.6065 26.5624 77.3976 26.5736 77.2125 26.5728C76.8033 26.5719 76.341 26.5981 75.8704 26.6489C75.7304 26.6656 75.5903 26.6767 75.4591 26.6813C75.3279 26.6859 75.2084 26.6841 75.1082 26.6759L74.79 26.7297C74.6521 26.7078 74.4771 26.6958 74.2759 26.6945C74.0746 26.6931 73.8512 26.7023 73.6192 26.7215C73.3719 26.7424 73.1208 26.7565 72.8642 26.7786C72.3343 26.8209 71.8186 26.8467 71.333 26.8553C70.61 26.8809 69.9035 26.9007 69.1741 26.9325C68.7178 26.9479 68.2732 26.9564 67.8429 26.9579C67.3275 26.9639 66.7701 26.993 66.1974 27.0438C66.2245 27.0915 66.4757 27.0774 66.6442 27.0758C67.1879 27.0679 67.7444 27.0474 68.3037 27.0319C68.5557 27.0259 68.8008 27.0236 69.0375 27.0251C69.4332 27.0231 69.8503 27.0104 70.2818 26.9872C70.9633 26.9616 71.6231 26.9494 72.2544 26.9505C72.3039 26.9524 72.3492 26.9557 72.3897 26.9605C72.3981 26.9646 72.3998 26.9698 72.3945 26.9755C72.3892 26.9813 72.3772 26.9874 72.3596 26.9934C72.342 26.9993 72.3193 27.0049 72.2938 27.0095C72.2684 27.0141 72.2409 27.0176 72.214 27.0197C71.9633 27.052 71.694 27.0867 71.4576 27.0916C71.4484 27.0919 71.4387 27.0928 71.4291 27.094C71.4194 27.0953 71.4101 27.0969 71.4019 27.0988C70.8726 27.167 70.4374 27.1554 70.025 27.1665C69.3405 27.1965 68.6806 27.2105 68.0553 27.2084C67.9608 27.2085 67.8588 27.2124 67.7529 27.2199C67.0981 27.2504 66.4857 27.2538 65.9446 27.23C65.7218 27.224 65.5148 27.2104 65.2754 27.2102C65.128 27.2093 64.9997 27.2006 64.8982 27.1848C64.7967 27.169 64.7241 27.1463 64.6848 27.1181C64.5838 27.133 64.4812 27.1462 64.3783 27.1576C64.3169 27.1642 64.2579 27.1659 64.2134 27.1625C64.1689 27.1591 64.1422 27.1507 64.1385 27.1392C64.1201 27.1068 64.2604 27.0906 64.3821 27.0767C64.3087 27.0698 64.226 27.0657 64.1359 27.0646C63.6288 27.0572 63.0849 27.0659 62.516 27.0906C62.0743 27.1201 61.7217 27.0961 61.257 27.1377C61.2013 27.1449 61.1554 27.1343 61.1042 27.1318C60.9704 27.1185 60.8039 27.1155 60.6189 27.1231C60.4339 27.1307 60.2361 27.1486 60.0425 27.1754C59.8015 27.1023 59.2809 27.1858 58.8965 27.1933C58.7781 27.2305 58.9139 27.224 58.9198 27.2342C58.9256 27.2444 58.9198 27.2342 58.9662 27.2282C59.3501 27.2809 59.8759 27.2924 60.4701 27.2611C60.58 27.2612 60.6847 27.2636 60.7832 27.2682C60.9324 27.2748 61.1006 27.2741 61.2804 27.2663C61.477 27.2605 61.6575 27.2633 61.8133 27.2744C61.903 27.2742 61.9788 27.2798 62.0338 27.2906C62.0887 27.3014 62.121 27.3171 62.1276 27.3362C62.0678 27.351 62.0014 27.3645 61.9311 27.3762C61.5641 27.4224 61.1981 27.4416 60.9051 27.4298C60.3952 27.4096 59.7884 27.4294 59.2463 27.4225C58.8797 27.4197 58.4897 27.4276 58.0836 27.4462C58.0836 27.4462 58.0943 27.4649 58.0952 27.4666C58.0472 27.4747 57.9967 27.4812 57.9466 27.4858C57.9466 27.4858 57.9466 27.4858 57.9418 27.4773C57.964 27.4691 57.9942 27.4614 58.0288 27.4551L58.1496 27.4395C58.0675 27.4355 57.9909 27.4234 57.9053 27.4308C57.7252 27.4445 57.553 27.4502 57.3991 27.4478C57.2452 27.4453 57.1129 27.4346 57.01 27.4164C56.8277 27.393 56.6009 27.3824 56.3444 27.3852C56.1478 27.3826 55.9583 27.3771 55.7768 27.3687C55.7768 27.3687 55.7652 27.3483 55.6793 27.3374C55.7606 27.3241 55.8455 27.3131 55.93 27.3051C56.2974 27.2852 56.6658 27.267 57.0268 27.2533C57.1598 27.2519 57.2848 27.2541 57.3995 27.2601C57.7172 27.2672 58.074 27.2572 58.4494 27.2308C58.4494 27.2308 58.5236 27.2213 58.5608 27.2165C58.4555 27.1716 58.0924 27.2165 57.9455 27.1861C57.8561 27.1867 57.6987 27.1905 57.7042 27.1825C57.7164 27.1718 57.7179 27.1619 57.7084 27.1534C57.699 27.1449 57.6789 27.1382 57.6496 27.1336C57.6203 27.1289 57.5825 27.1266 57.539 27.1267C57.4954 27.1269 57.4471 27.1294 57.3976 27.1342C56.9842 27.1603 56.5949 27.1676 56.2535 27.1556C56.124 27.1558 55.9789 27.1635 55.8504 27.1655C55.7718 27.1678 55.7 27.1665 55.639 27.1617C55.3285 27.1259 54.9108 27.1233 54.4486 27.1542C54.2252 27.1653 54.0164 27.1668 53.8331 27.1586C53.7027 27.1571 53.6474 27.1825 53.5545 27.1945L53.1602 27.2197L53.6666 27.2514C53.5584 27.3238 53.4723 27.3477 53.2954 27.3522C53.0375 27.359 52.7862 27.3621 52.5431 27.3614C52.3634 27.3608 52.215 27.3452 51.9716 27.373C51.9286 27.3775 51.8872 27.3789 51.8543 27.3771C51.5693 27.3525 51.2261 27.3468 50.8482 27.3605C50.6525 27.3145 50.3191 27.3593 50.0107 27.3954C49.9112 27.3607 50.0916 27.3447 50.1991 27.3235C49.9412 27.3257 49.6813 27.3245 49.4151 27.3295C49.335 27.3277 49.2435 27.3309 49.1477 27.3388C49.0519 27.3467 48.9544 27.3591 48.8629 27.3751C48.8183 27.3855 48.7646 27.3932 48.7128 27.3969C48.661 27.4005 48.6152 27.3996 48.5849 27.3945C48.4467 27.3794 48.2254 27.3933 48.1112 27.3678C48.0706 27.3619 48.0126 27.3611 47.9475 27.3655C47.8824 27.3699 47.8145 27.3791 47.7559 27.3917C47.82 27.3956 47.8771 27.4017 47.9259 27.41C48.1006 27.4368 48.0364 27.4817 47.8144 27.5468C47.4735 27.5433 47.1252 27.5443 46.8092 27.532C46.6331 27.521 46.4172 27.5244 46.186 27.5419C45.9547 27.5595 45.7172 27.5904 45.5001 27.6312C45.4216 27.647 45.3321 27.6578 45.2493 27.6617C45.1666 27.6656 45.0967 27.6622 45.0536 27.6522C45.0268 27.6407 45.0184 27.6261 45.0294 27.6097L45.2522 27.5809C45.2522 27.5809 45.2435 27.5656 45.2415 27.5622L44.9211 27.5596C44.7516 27.5595 44.5748 27.5641 44.4146 27.5628C44.1792 27.5542 43.9106 27.559 43.6251 27.5768C43.3618 27.595 43.1031 27.6088 42.8512 27.618C42.6074 27.6275 42.4307 27.5973 42.1987 27.5924C42.0233 27.5888 41.8303 27.5927 41.6271 27.604C41.2762 27.624 40.9541 27.624 40.6902 27.6041C40.3825 27.7114 40.233 27.7288 39.9474 27.6998L39.8131 27.6915L39.7763 27.7146L39.6738 27.7095C39.4818 27.705 39.2899 27.7005 39.0896 27.6989C38.8111 27.7088 38.5104 27.7356 38.2169 27.7766C38.1611 27.7838 38.0853 27.8082 38.0364 27.8273C37.9875 27.8464 37.8807 27.9041 37.8024 27.9416C37.8878 27.969 37.9825 27.9952 38.0502 28.0266C38.057 28.032 38.0564 28.0384 38.0483 28.0454C38.0402 28.0523 38.0249 28.0596 38.0037 28.0666C37.9825 28.0736 37.9559 28.0801 37.9261 28.0857C37.8963 28.0913 37.8641 28.0957 37.8321 28.0986C37.7697 28.105 37.7081 28.1092 37.6498 28.1112C37.3629 28.1145 37.0881 28.112 36.8282 28.1037C36.7333 28.092 36.6034 28.0909 36.459 28.1006C36.3147 28.1102 36.1641 28.1301 36.0313 28.1571C35.6912 28.1409 35.2961 28.1457 34.8731 28.1711C34.4257 28.1556 33.8853 28.1869 33.4673 28.153C33.477 28.1701 33.4339 28.1994 33.3737 28.2163C33.2786 28.2419 33.1708 28.2657 33.055 28.2866L32.1711 28.3274C32.1381 28.3484 32.0968 28.3696 32.0478 28.3908C32.0142 28.4076 31.9557 28.424 31.8847 28.4366C31.8137 28.4491 31.7358 28.4569 31.6675 28.4581C31.4916 28.4644 31.3441 28.4505 31.1344 28.4848C31.4573 28.5173 31.8929 28.513 32.3635 28.4726C32.8056 28.442 33.2308 28.4266 33.6234 28.4272C33.7529 28.427 33.9234 28.4288 33.9638 28.4473C34.0535 28.4998 34.288 28.4915 34.5616 28.4818C34.7765 28.4712 34.9728 28.4724 35.1344 28.4853C35.2959 28.4981 35.4181 28.5223 35.4909 28.5558C35.5093 28.5882 35.4652 28.6158 35.2766 28.6346L34.4922 28.7101C34.3766 28.7004 34.267 28.6889 34.1636 28.6757C33.9896 28.6581 33.7747 28.6533 33.5356 28.6616C33.2966 28.6699 33.0399 28.6911 32.7854 28.7235C32.6554 28.7403 32.5254 28.7571 32.4312 28.7491C32.3485 28.74 32.2723 28.729 32.2032 28.7163C32.1893 28.7078 32.1837 28.6981 32.1867 28.6874C32.1367 28.6923 32.0866 28.6988 32.0382 28.7065C31.6509 28.7967 31.351 28.7951 31.0785 28.7717C31.0048 28.7648 30.9487 28.7537 30.874 28.7451C30.7992 28.7364 30.7729 28.7252 30.705 28.7285C30.1636 28.758 30.0078 28.6593 29.5515 28.6633C29.5292 28.6594 29.5154 28.6536 29.5114 28.6465C29.5073 28.6393 29.5131 28.6311 29.5282 28.6224C29.5604 28.6145 29.5977 28.6078 29.6367 28.6028C29.6756 28.5978 29.715 28.5946 29.7511 28.5936C29.9611 28.581 30.1465 28.5849 30.2757 28.6046C30.3672 28.6127 30.464 28.6192 30.5658 28.6239L31.0226 28.4809C30.58 28.494 30.1614 28.494 29.7765 28.4807C29.6925 28.4732 29.5503 28.4861 29.4321 28.4885L28.5625 28.5019C28.3837 28.503 28.2314 28.4806 27.9821 28.5328C27.9821 28.5328 27.8174 28.5412 27.7735 28.5341C27.7296 28.527 27.5349 28.4826 27.4187 28.4537C27.2839 28.4619 27.0972 28.4842 27.0132 28.4767C26.8665 28.4584 26.7395 28.4349 26.6344 28.4067L26.1091 28.447C26.1097 28.4828 26.1289 28.5165 26.1664 28.5475C26.2073 28.5774 26.2059 28.6133 26.1623 28.6523C26.1187 28.6913 26.034 28.7323 25.9153 28.7718L25.3967 28.9813C25.312 28.9953 25.2218 29.0047 25.1383 29.0083C25.0547 29.0119 24.9818 29.0094 24.9296 29.0012C24.7065 28.977 24.4565 28.958 24.2333 28.9338C23.9455 28.9709 24.0194 29.0308 23.8102 29.0834L23.1323 29.1708C23.0289 29.2517 22.9235 29.3293 23.238 29.3564C23.3005 29.3611 23.2584 29.3922 23.3155 29.4049C23.071 29.4657 22.8022 29.4839 22.5544 29.5213C22.4567 29.5482 22.375 29.5767 22.3133 29.6054C22.2454 29.6486 22.108 29.6927 21.9305 29.7283C21.753 29.7638 21.5499 29.7879 21.3648 29.7953C21.0544 29.818 20.7366 29.8522 20.4256 29.8963C20.3193 29.9116 20.2101 29.9227 20.1054 29.929C20.0006 29.9352 19.9027 29.9364 19.8182 29.9325C19.5173 29.9256 19.2626 29.9017 19.0707 29.8625C18.8809 29.8292 18.6251 29.8132 18.3264 29.8158C17.8157 29.8817 17.7127 29.9809 17.4036 30.0682L17.9375 30.078C17.9569 30.1121 17.9215 30.155 18.1404 30.1542C18.3592 30.1535 18.2482 30.1861 18.1772 30.219C18.1522 30.2355 18.1034 30.2526 18.0391 30.2672C17.9747 30.2818 17.8988 30.2931 17.8242 30.2992L17.3697 30.3413C17.2086 30.3574 17.0526 30.3642 16.919 30.3611C16.7853 30.358 16.6792 30.3451 16.6122 30.3238C16.5353 30.3036 16.4291 30.2899 16.3002 30.2836C16.136 30.2671 16.0009 30.2425 15.9 30.2109L15.2584 30.257C15.2311 30.2252 15.1429 30.2029 15.0088 30.1938C14.8747 30.1848 14.7029 30.1896 14.5225 30.2074L14.09 30.2357C13.6093 30.2666 13.5038 30.2565 13.363 30.1668L13.9396 30.0065C13.8557 29.9643 13.7748 29.9272 13.6939 29.8901C13.8375 29.8373 14.0292 29.7874 14.2494 29.7454C14.4549 29.7002 14.6662 29.6565 14.8825 29.6144C15.1171 29.5714 15.365 29.5339 15.6563 29.4854C15.7072 29.4697 15.781 29.4419 15.8754 29.4151C15.9699 29.3891 16.0685 29.3636 16.1708 29.3387C16.1514 29.3046 16.1339 29.2739 16.1712 29.2344C15.9918 29.247 15.8064 29.2691 15.6318 29.2986C15.4572 29.3281 15.2989 29.3642 15.1711 29.4035C15.1496 29.4105 15.1233 29.4171 15.0938 29.4227C15.0644 29.4284 15.0326 29.4331 15.0005 29.4365C14.6853 29.4607 14.5347 29.5112 14.3805 29.5731C14.2768 29.6047 14.143 29.6328 13.9977 29.6535C13.7191 29.6894 13.4464 29.7355 13.18 29.7754C13.0985 29.7886 13.0137 29.7995 12.9293 29.8077C12.6508 29.8335 12.3706 29.8696 12.1028 29.9142C12.0154 29.9255 11.9315 29.9405 11.8582 29.9579C11.7849 29.9753 11.7243 29.9946 11.6813 30.0142C11.7476 30.0357 11.7834 30.0628 11.7865 30.0939C11.7982 30.1143 11.6026 30.156 11.5101 30.1862C11.4177 30.2164 11.599 30.2022 11.6605 30.2052C11.913 30.2111 11.9599 30.2233 11.8087 30.2903C11.7581 30.3114 11.7246 30.3325 11.7102 30.3523C11.6957 30.3721 11.7006 30.3901 11.7246 30.4054C11.7605 30.4684 11.8697 30.5201 11.9447 30.5818C11.8283 30.6224 11.6337 30.6657 11.6125 30.716C11.6023 30.7271 11.5807 30.7389 11.5494 30.7506C11.5181 30.7622 11.4778 30.7733 11.4315 30.7832C11.3092 30.8045 11.1981 30.8299 11.1066 30.8575C11.0152 30.8852 10.9459 30.9143 10.9042 30.9426C10.8905 30.9543 10.8576 30.9667 10.8119 30.9773C10.7661 30.988 10.7111 30.996 10.6578 30.9999C10.594 31.0047 10.537 31.0041 10.4983 30.9982C10.4597 30.9922 10.4425 30.9815 10.4503 30.9682C10.4487 30.9431 10.4572 30.9169 10.4755 30.89C10.4649 30.8712 10.4542 30.8525 10.4963 30.8215C10.306 30.8328 10.1062 30.8555 9.91856 30.8871C9.73095 30.9187 9.56273 30.958 9.43219 31.0007C9.28791 31.0449 9.15483 31.0913 8.99488 31.143C9.02785 31.2009 9.02786 31.2009 8.68745 31.3033L6.88184 31.3532L6.51178 31.421C6.16667 31.4801 6.08462 31.4761 5.86786 31.4455L5.72195 31.4168C5.41551 31.4563 5.06263 31.5018 4.87097 31.4277C4.80873 31.476 4.76811 31.4922 4.78224 31.4995C4.87373 31.5707 5.0327 31.6311 5.25287 31.6783C5.30901 31.6894 5.34852 31.7062 5.41393 31.7161C5.62484 31.7717 5.67376 31.8576 5.55068 31.9562C5.48959 31.9999 5.40085 32.0446 5.28734 32.0889C5.45349 32.1504 5.67359 32.2013 5.94175 32.2404C6.16933 32.2706 6.35673 32.311 6.49859 32.3605C6.62597 32.4105 6.81671 32.448 7.05988 32.471C7.18324 32.4808 7.27325 32.5001 7.32097 32.5269C7.33515 32.5997 7.30253 32.6775 7.22379 32.7588C7.20896 32.7836 7.16682 32.8103 7.1007 32.8369C7.03457 32.8635 6.94623 32.8893 6.84263 32.9122C6.84263 32.9122 6.79273 32.9296 6.76875 32.94C6.74877 33.0281 6.82356 33.1057 6.98811 33.1676C7.01506 33.1852 7.07023 33.1979 7.14767 33.2044C7.2251 33.2108 7.32187 33.2108 7.42757 33.2042C7.65084 33.1937 7.85943 33.1924 8.07536 33.1865C8.30804 33.1782 8.51301 33.1848 8.66869 33.2056C8.82436 33.2264 8.925 33.2606 8.96 33.3047C8.96228 33.3172 8.96909 33.3291 8.98036 33.3405C8.98694 33.3463 8.99051 33.3526 8.99103 33.3592L8.49512 33.5036L9.05614 33.561C9.08912 33.6189 8.81982 33.6537 8.68481 33.6966L8.76825 33.7206C8.87566 33.7342 9.02035 33.7082 9.15132 33.6932L9.28134 33.6764L9.29686 33.7037C9.37779 33.7408 9.67299 33.6991 9.78816 33.7263C9.90333 33.7535 9.82113 33.7842 9.64857 33.8137C9.52862 33.8357 9.39981 33.8532 9.27184 33.865C9.14386 33.8767 9.02005 33.8824 8.90972 33.8816C8.84384 33.8786 8.78919 33.872 8.7491 33.862C8.51621 33.8196 8.25895 33.7831 7.97923 33.7529C7.76477 33.7257 7.49621 33.7141 7.19242 33.719C7.10328 33.7169 6.99578 33.7234 6.88878 33.7372C6.7818 33.751 6.68219 33.7712 6.60743 33.7944L6.45012 33.7982C6.45012 33.7982 6.36405 33.8221 6.37624 33.826C6.43612 33.8968 6.36654 33.9834 6.17784 34.0728L6.34194 34.0809C6.57645 34.0726 6.42774 34.1265 6.4628 34.1531C6.62939 34.1481 6.84587 34.1256 6.92486 34.1593L7.04308 34.1569L6.99666 34.1629L6.94051 34.1518L6.72 34.2022C6.8245 34.2107 6.90018 34.221 6.99249 34.2256C7.04347 34.2295 7.08405 34.2365 7.1118 34.2462C7.13954 34.2558 7.15388 34.2678 7.15394 34.2815C7.15369 34.3027 7.18117 34.3205 7.23379 34.3332C7.28641 34.3459 7.36242 34.3532 7.45455 34.3543C7.56446 34.3548 7.62737 34.3777 7.69182 34.3859L7.41182 34.5244C7.41182 34.5244 7.55111 34.5064 7.47529 34.5308L7.46559 34.5138L7.29594 34.5484C7.1737 34.5788 7.0882 34.5862 7.016 34.5644C6.9438 34.5426 6.96026 34.5716 6.92561 34.5633C6.93822 34.5854 7.01681 34.6009 7.08416 34.6141C7.16204 34.6245 7.24994 34.6322 7.34637 34.637C7.17257 34.7344 7.16424 34.7373 7.41814 34.763C7.67205 34.7888 7.58445 34.8275 7.79691 34.833C8.00938 34.8386 7.76779 34.9044 7.62559 34.9173C7.52018 34.9257 7.41269 34.9389 7.31051 34.9558C7.20832 34.9728 7.11385 34.9932 7.03365 35.0155L7.07632 35.0905C7.13885 35.0843 7.20148 35.0762 7.26205 35.0665C7.46787 35.0254 7.65511 34.9866 7.83818 35.0105L7.751 35.0675L8.39007 35.0345C8.37353 35.0771 8.27612 35.1257 8.11839 35.17C8.14215 35.1944 8.15673 35.22 8.16203 35.2467C8.1727 35.2654 8.23578 35.2536 8.27681 35.2556C8.42317 35.2588 8.54326 35.2715 8.62657 35.2926C8.70986 35.3138 8.75382 35.3427 8.75452 35.3769C8.77101 35.4058 8.54604 35.4659 8.40536 35.4639C8.05412 35.4697 7.67433 35.492 7.28648 35.5295C7.05004 35.5344 7.01666 35.4583 6.62761 35.5103C6.61988 35.5454 6.66971 35.5739 6.76957 35.5914C6.86943 35.6088 7.0139 35.6144 7.18114 35.6071C7.08605 35.6852 6.55939 35.7055 6.53609 35.7872C6.66723 35.7814 6.80747 35.7678 6.94292 35.7478C7.07837 35.7278 7.20433 35.702 7.30835 35.673C7.3308 35.6658 7.359 35.6592 7.39031 35.6538C7.42163 35.6484 7.45508 35.6443 7.48753 35.642C7.51998 35.6396 7.5504 35.639 7.57597 35.6403C7.60154 35.6416 7.62143 35.6447 7.6338 35.6493C7.56089 35.6788 7.48063 35.7129 7.38915 35.7448C7.29767 35.7767 7.27564 35.7905 7.20967 35.7972C6.71751 35.8607 6.48353 35.9749 6.05775 36.0499C5.94631 36.0643 5.93245 36.1099 6.02919 36.1048C6.12122 36.0996 6.20453 36.1003 6.26982 36.1067C6.3351 36.1132 6.37977 36.1251 6.39882 36.1412C6.47023 36.16 6.55917 36.175 6.66338 36.1857C6.22672 36.303 5.70607 36.4066 5.15032 36.4868C5.04507 36.5027 4.93528 36.5123 4.83707 36.5144C4.52684 36.5145 4.19764 36.5238 3.8561 36.5421C3.73496 36.5471 3.62304 36.5466 3.5264 36.5407C3.20943 36.5267 2.95773 36.5574 2.72778 36.6437L2.34718 36.7805C2.35979 36.8026 2.42367 36.8273 2.47286 36.8612L2.17557 36.9342L-0.0931849 36.766L-0.548623 36.9289L-1.2017 36.9198C-1.25176 36.9245 -1.30205 36.931 -1.35025 36.939C-1.48234 36.9871 -1.58562 37.0333 -1.72894 37.0792C-1.87225 37.1251 -2.12822 37.1307 -2.30674 37.1848C-2.48526 37.2388 -2.66405 37.24 -2.88498 37.2721C-2.90575 37.314 -2.88429 37.3516 -2.82194 37.3828C-2.80157 37.4186 -2.6893 37.4406 -2.66991 37.4747C-2.67205 37.5091 -2.63034 37.5384 -2.54854 37.5597C-2.46674 37.5811 -2.34745 37.594 -2.20148 37.5971C-1.79274 37.6704 -1.29982 37.7226 -0.737676 37.7522C-0.688298 37.7543 -0.647352 37.7593 -0.617382 37.7667C-0.58742 37.7742 -0.569076 37.784 -0.563479 37.7955C-0.564245 37.8289 -0.526766 37.8578 -0.453757 37.88C-0.38074 37.9022 -0.274033 37.9172 -0.141477 37.9239C-0.10617 37.9253 -0.0795262 37.9295 -0.0648547 37.936C-0.0145774 37.9402 0.0220731 37.9483 0.0415062 37.9594C0.0609469 37.9705 0.0625097 37.9843 0.046089 37.9995C0.0296758 38.0146 -0.00418288 38.0306 -0.0522175 38.046C-0.10026 38.0613 -0.160863 38.0753 -0.228144 38.0868C-0.325741 38.1054 -0.425432 38.1231 -0.52681 38.14C-0.520991 38.1502 -0.420387 38.1518 -0.435077 38.1611C-0.4748 38.1904 -0.483993 38.218 -0.461963 38.2415C-0.439933 38.265 -0.387267 38.2838 -0.308134 38.2964L-0.850348 38.5345C-1.17947 38.5675 -1.50232 38.6234 -1.75762 38.6917C-1.75796 38.7029 -1.74327 38.7122 -1.71501 38.7189C-1.68674 38.7255 -1.64592 38.7291 -1.59659 38.7294C-1.46424 38.7343 -1.33921 38.7438 -1.1966 38.7492C-1.10943 38.7532 -1.03689 38.762 -0.983196 38.7752C-0.9295 38.7884 -0.89572 38.8056 -0.883815 38.8258L-1.20218 38.9144C-1.10017 38.936 -1.02451 38.9464 -0.957146 38.9596C-0.995309 38.9874 -1.06096 39.0162 -1.149 39.0437C-1.23704 39.0713 -1.34511 39.0968 -1.46486 39.1183C-1.49696 39.1227 -1.5297 39.126 -1.56117 39.1278C-1.59264 39.1297 -1.62221 39.1301 -1.64808 39.1291C-1.89464 39.0987 -2.18305 39.1524 -2.46315 39.2031C-2.74326 39.2538 -2.89533 39.2844 -3.10212 39.3238L-3.4978 39.3291C-3.59794 39.3478 -3.68731 39.3698 -3.75874 39.3933C-3.83018 39.4168 -3.88167 39.4411 -3.90916 39.4644C-3.88782 39.5019 -3.70016 39.4814 -3.58832 39.4852C-3.32297 39.5086 -2.97412 39.5036 -2.59958 39.4711C-2.50672 39.4592 -2.41151 39.4688 -2.32115 39.47C-2.12622 39.4746 -1.93888 39.4822 -1.76 39.4927C-1.6422 39.5025 -1.53211 39.5145 -1.43043 39.5288C-1.40327 39.5765 -1.83084 39.6134 -1.58817 39.6369C-1.67174 39.6477 -1.70305 39.6627 -1.74602 39.6573C-2.0213 39.6882 -2.29253 39.7036 -2.52825 39.7014C-2.98061 39.6949 -3.49427 39.7166 -4.02716 39.7648C-4.60238 39.8148 -5.15414 39.8358 -5.63694 39.8261C-5.82083 39.8255 -6.02637 39.8358 -6.23789 39.856C-6.48769 39.8841 -6.73574 39.9017 -6.96595 39.9078C-7.04217 39.908 -7.12709 39.9128 -7.21379 39.9218C-7.3005 39.9307 -7.38653 39.9436 -7.46489 39.9593C-7.4581 39.9713 -7.38341 39.9799 -7.40005 39.9857C-7.63831 40.0749 -7.73491 40.1678 -8.10164 40.259C-8.35237 40.2913 -8.64023 40.3284 -8.80418 40.2855C-8.96813 40.2427 -8.90938 40.2059 -8.58311 40.0962C-8.65392 40.0946 -8.73919 40.0997 -8.82405 40.1106C-8.90891 40.1216 -8.98796 40.1376 -9.0474 40.156L-9.32959 40.2381L-9.58391 40.3166C-9.5616 40.3557 -9.54414 40.3864 -9.52572 40.4188C-9.49661 40.4531 -9.52857 40.495 -9.61708 40.5384C-9.67049 40.5621 -9.71698 40.5858 -9.75612 40.6093C-9.91511 40.7033 -9.96115 40.7922 -9.88907 40.866C-9.75097 40.972 -9.55867 41.0695 -9.31437 41.1575C-9.05633 41.2431 -8.91511 41.351 -8.70253 41.4443C-8.59408 41.4867 -8.46239 41.5248 -8.30881 41.5581C-8.01749 41.632 -7.69832 41.7024 -7.40604 41.7781C-7.11376 41.8537 -6.78375 41.9081 -6.45917 41.9705C-5.97588 42.0445 -5.4535 42.1084 -4.89491 42.1619C-4.54926 42.2087 -4.19432 42.2544 -3.8746 42.3082C-3.49697 42.369 -3.05335 42.4125 -2.55479 42.4379C-2.11444 42.4683 -1.721 42.5133 -1.38202 42.572C-1.34646 42.5783 -1.3184 42.5864 -1.29861 42.596C-1.23758 42.6558 -1.06652 42.6979 -0.811598 42.716C-0.827089 42.7335 -0.846894 42.7513 -0.870927 42.7693C-0.906306 42.7908 -0.913676 42.8109 -0.892054 42.827C-0.87044 42.8432 -0.82084 42.8546 -0.749692 42.8597C-0.545769 42.8746 -0.376281 42.8997 -0.248807 42.9341C-0.201975 42.9428 -0.172945 42.9553 -0.164161 42.9707C-0.155377 42.9862 -0.167101 43.004 -0.198374 43.0227C-0.226063 43.0419 -0.228101 43.0596 -0.204203 43.0735C-0.180313 43.0874 -0.131596 43.0968 -0.0643663 43.1005C0.108237 43.1187 0.293051 43.1333 0.488894 43.1443C0.905624 43.1686 1.39033 43.1683 1.91378 43.1435C1.96949 43.1363 2.02561 43.1474 2.09061 43.139C2.46077 43.1112 2.80455 43.1069 3.08031 43.1266C3.40366 43.1343 3.74169 43.1327 4.08263 43.1363C4.5752 43.1339 5.02959 43.1485 5.4331 43.1798C5.89435 43.1496 6.15352 43.2021 6.54283 43.2031C6.90226 43.2085 7.24294 43.2214 7.56163 43.2418C8.07539 43.2688 8.58721 43.2924 9.09363 43.324C9.56871 43.3391 10.0061 43.3679 10.3985 43.41C10.5489 43.429 10.821 43.3994 10.9235 43.4392C11.0259 43.479 11.2325 43.4743 11.3995 43.4875L11.9265 43.5201C12.0171 43.5279 12.1167 43.5328 12.2239 43.5348C12.7138 43.5375 13.0531 43.5906 13.5078 43.6015L13.5542 43.5955C14.3616 43.6745 15.2856 43.7179 16.2989 43.7244C16.8909 43.7486 17.5381 43.7474 18.1662 43.7652C18.316 43.8007 18.6699 43.757 18.8578 43.7894C19.0457 43.8219 19.3526 43.8006 19.5948 43.8059C19.8371 43.8112 20.0739 43.8246 20.3328 43.8241C20.5577 43.8243 20.7475 43.8388 20.8851 43.8663C21.1992 43.9118 21.5821 43.9385 22.0166 43.9453C22.5915 43.9571 23.135 43.984 23.7198 43.9781C23.7114 44.0112 23.7473 44.0394 23.8237 44.0597C23.9001 44.0801 24.0143 44.0919 24.1545 44.0939C24.7797 44.1065 25.3467 44.1395 25.9802 44.1492L26.1497 44.1493L28.0444 44.1683C28.5549 44.172 29.0468 44.1781 29.5675 44.1822C29.7625 44.1571 29.7672 44.2004 29.902 44.1921C29.9397 44.1708 29.9842 44.1614 30.0506 44.173L30.0652 44.1985L32.2275 44.2324C33.0741 44.2572 33.9647 44.2646 34.8916 44.2547C35.1114 44.2572 35.3167 44.2656 35.504 44.2799C35.6776 44.2851 35.8587 44.2874 36.0462 44.2868C36.2997 44.2804 36.5473 44.2771 36.7882 44.2771C37.4217 44.2868 38.0865 44.2816 38.7802 44.2744C39.4739 44.2673 39.9994 44.28 40.6169 44.279C41.035 44.2781 41.4512 44.2738 41.884 44.2638C42.0907 44.2591 42.3453 44.2335 42.5593 44.2242C42.7733 44.2149 42.8431 44.2151 42.8714 44.2297C42.9645 44.2707 43.1986 44.2442 43.3857 44.2402C43.7506 44.2334 43.8025 44.2194 43.9016 44.1134L43.4538 44.0797C43.3441 44.0688 43.2061 44.0669 43.053 44.0741C42.9 44.0814 42.7372 44.0975 42.5802 44.121C42.5184 44.1311 42.4539 44.139 42.3902 44.1444C42.3266 44.1498 42.2651 44.1525 42.2093 44.1523C41.7575 44.1466 41.3121 44.1346 40.8779 44.1247L40.8144 44.1183L40.8104 44.0237C40.8678 44.0144 40.9274 44.0068 40.9868 44.001L43.1647 43.9396C43.6645 43.9246 44.1834 43.8906 44.6739 43.8767C45.1644 43.8629 45.4287 43.8544 45.8093 43.8401C45.9699 43.8319 46.1336 43.8212 46.2993 43.808C46.2897 43.7989 46.2842 43.7892 46.2828 43.779C46.2741 43.7637 46.2625 43.7432 46.3329 43.7269C46.4097 43.7037 46.5124 43.684 46.6203 43.6715C46.7218 43.6633 46.8201 43.6587 46.9115 43.6578C47.3532 43.6498 47.8577 43.5999 48.3174 43.5186L48.4779 43.5729C49.1683 43.5424 49.8689 43.5124 50.59 43.4834C50.7344 43.4755 50.8859 43.4604 51.0332 43.4391C51.1911 43.4187 51.3363 43.3763 51.5025 43.353C51.6667 43.3363 51.8298 43.3232 51.9887 43.3141C51.9457 43.3001 51.8889 43.289 51.8203 43.281C51.7528 43.2782 51.7036 43.2694 51.6798 43.2561C51.6561 43.2427 51.659 43.2254 51.6882 43.2066C51.7397 43.1744 51.7623 43.144 51.6504 43.1402C51.5471 43.1328 51.4732 43.1169 51.4373 43.0943C51.4015 43.0717 51.4053 43.0434 51.4483 43.0126C51.4671 42.9947 51.4804 42.9771 51.488 42.96L51.5345 42.954C51.6876 42.8904 51.9935 42.8674 52.213 42.8153C52.3167 42.8003 52.4239 42.7916 52.518 42.7907C52.7608 42.7795 52.9972 42.7746 53.2484 42.7605C53.3683 42.754 53.4937 42.7422 53.6173 42.7257C53.7937 42.703 53.8123 42.7006 53.9147 42.6179C53.7557 42.6194 53.6295 42.607 53.5577 42.583C53.4859 42.5589 53.4728 42.5246 53.5206 42.4859C53.6519 42.4014 53.7905 42.3122 54.3842 42.2521C54.1906 42.2492 54.0042 42.2433 53.826 42.2345C53.7741 42.2326 53.7353 42.2264 53.7147 42.2167C53.6941 42.207 53.6927 42.1943 53.7107 42.1802C53.7287 42.1662 53.7653 42.1515 53.8155 42.1381C53.8657 42.1247 53.9271 42.1132 53.9916 42.1053C54.305 42.0574 54.6319 42.0254 54.9357 42.0128C55.1917 42.0073 55.4228 42.0104 55.7217 42.0102L56.0746 41.9648C56.0688 41.9545 56.1206 41.9406 56.1074 41.9349C56.0178 41.8825 55.9188 41.8313 55.817 41.7749C55.9797 41.7445 56.1206 41.7078 56.2236 41.669C56.3267 41.6301 56.3877 41.5908 56.3997 41.5554C56.4084 41.5447 56.4061 41.535 56.3929 41.5269C56.3797 41.5188 56.3559 41.5126 56.3232 41.5086C56.2303 41.5017 56.1586 41.4887 56.1136 41.4704C56.0686 41.4521 56.0515 41.4291 56.0637 41.4031L56.3381 41.3074C57.1644 41.2391 57.9757 41.1903 58.7572 41.1619L59.4627 41.1405C59.5478 41.1149 59.5214 41.1036 59.4413 41.103C59.3612 41.1024 59.136 41.1095 58.9787 41.1133C58.8428 41.1183 58.7222 41.115 58.6284 41.1037C58.5347 41.0924 58.471 41.0735 58.4436 41.0488L58.6805 40.9397C58.6688 40.9192 58.6524 40.8903 58.5239 40.8922C58.4361 40.8898 58.3714 40.8795 58.3403 40.863C58.3092 40.8464 58.3134 40.8246 58.3523 40.801C58.3582 40.7839 58.3493 40.7683 58.3261 40.755C58.1361 40.7539 57.9471 40.7545 57.7746 40.7493C57.6943 40.7476 57.6266 40.7412 57.5758 40.7307C57.5251 40.7202 57.4927 40.7058 57.4808 40.6884C57.4746 40.6715 57.4898 40.6522 57.5251 40.6321C57.5604 40.6119 57.6148 40.5916 57.684 40.5727C57.9543 40.5492 58.2014 40.5489 58.3713 40.5718C58.4319 40.5898 58.5292 40.5996 58.6504 40.5999C58.7716 40.6003 58.9111 40.5912 59.0503 40.5739C59.2098 40.5539 59.3689 40.5451 59.4991 40.5491C59.6292 40.5531 59.7219 40.5696 59.7604 40.5957C59.9241 40.5856 60.0692 40.5778 60.2124 40.5667C60.3813 40.5526 60.5409 40.5485 60.6741 40.5547C60.8871 40.5591 61.1166 40.5565 61.3575 40.5471C62.0517 40.5234 62.7469 40.5014 63.4191 40.4916C63.5969 40.4887 63.7507 40.4963 63.9266 40.4901C64.1025 40.4839 64.2416 40.5007 64.4616 40.4669C64.5035 40.4616 64.5456 40.4582 64.5847 40.457C64.6238 40.4558 64.6588 40.4567 64.6868 40.4598C65.0731 40.4865 65.5259 40.4903 66.0188 40.4709C66.6939 40.4661 67.394 40.4527 68.07 40.4496C68.2683 40.4523 68.4557 40.4593 68.6302 40.4707C68.763 40.4775 68.9022 40.4822 69.0468 40.4846C69.1577 40.4868 69.2638 40.4804 69.245 40.5176C69.2263 40.5547 69.3925 40.5315 69.4883 40.5246C69.8173 40.5066 70.1536 40.4822 70.4934 40.4517C70.8282 40.4186 71.1562 40.3993 71.4578 40.395C71.6757 40.3925 71.9004 40.402 72.1805 40.3512C72.1698 40.3325 72.1592 40.3138 72.0982 40.2942C72.3266 40.2404 72.5872 40.1941 72.8585 40.1591C73.1298 40.1241 73.4039 40.1015 73.6582 40.0931L74.0089 39.9913C74.0952 39.9793 74.1834 39.9706 74.268 39.9656C74.3525 39.9607 74.4318 39.9597 74.5009 39.9626C74.5543 39.964 74.6194 39.9603 74.6842 39.9519C74.749 39.9435 74.8093 39.9312 74.8538 39.9171C74.9204 39.8991 75.0017 39.8837 75.0876 39.8726C75.1735 39.8615 75.2601 39.8553 75.3367 39.8548C75.5776 39.8438 75.8348 39.8182 76.0819 39.7807C76.146 39.7588 76.1862 39.7361 76.1975 39.7154C76.2088 39.6948 76.1906 39.6772 76.1454 39.6647C76.0724 39.6426 76.0314 39.6145 76.0249 39.582C76.0184 39.5495 76.0465 39.5134 76.1076 39.4758C76.1388 39.4527 76.1493 39.4308 76.1383 39.4115C76.1273 39.3922 76.0951 39.3758 76.0436 39.3634C75.8513 39.3059 75.9028 39.2736 76.2173 39.1783C76.2683 39.1624 76.3299 39.1475 76.3981 39.1346C76.4663 39.1217 76.5395 39.1111 76.6132 39.1034C76.7862 39.0879 76.9568 39.0763 77.1219 39.069C77.2147 39.057 77.31 39.0667 77.417 39.062C77.9519 39.0388 78.0302 39.0012 78.2035 38.9204L78.3298 38.8621C78.564 38.8148 78.8201 38.7756 79.0797 38.7472C79.3393 38.7188 79.5959 38.7019 79.831 38.6978C79.9245 38.6975 80.032 38.6894 80.1369 38.6748C80.4785 38.6302 80.8245 38.5993 81.1519 38.5842C81.3559 38.5757 81.5758 38.5538 81.7852 38.5209C81.9946 38.4881 82.1846 38.4458 82.3323 38.3992C82.465 38.3571 82.6387 38.3194 82.8291 38.2913C83.0519 38.2625 83.0726 38.2288 82.9481 38.2028C82.8237 38.1768 82.6152 38.1433 82.4302 38.116C82.3658 38.1067 82.3259 38.0916 82.315 38.0723C82.304 38.0531 82.3224 38.0305 82.3681 38.007C82.3975 37.9668 82.4026 37.9287 82.3833 37.8935C82.373 37.8789 82.3801 37.8622 82.4042 37.8444C82.4282 37.8266 82.4687 37.8083 82.5229 37.7905C82.577 37.7728 82.6435 37.7562 82.718 37.7417C82.7925 37.7272 82.8732 37.7152 82.9546 37.7065C83.2982 37.6622 83.6325 37.6191 83.9828 37.5868C84.1297 37.5715 84.2764 37.5526 84.4193 37.5305C84.7119 37.4759 85.0249 37.4306 85.3401 37.3972C85.4898 37.3823 85.636 37.3562 85.7473 37.3246C86.0983 37.2395 86.4217 37.15 86.7117 37.0577C86.7816 37.0291 86.8731 37.0012 86.9804 36.9757C87.0876 36.9502 87.2084 36.9278 87.3351 36.9097C87.4373 36.8965 87.5204 36.8675 87.5992 36.8482C87.6564 36.8036 87.6625 36.7623 87.6169 36.7282C87.5714 36.6941 87.4756 36.6683 87.3387 36.6533C87.2088 36.6353 87.0873 36.6144 86.975 36.5923C86.8397 36.5745 86.6788 36.5637 86.4984 36.5605C86.2847 36.5509 86.1266 36.5235 86.0449 36.4819C86.6299 36.4065 87.1863 36.2982 87.699 36.3235L88.0887 36.255C88.0732 36.2277 88.0596 36.2039 88.047 36.1817C87.9543 36.1414 87.9254 36.0906 87.9626 36.0336C87.9933 36.006 87.9905 35.9809 87.9546 35.9608C87.9186 35.9407 87.8508 35.9263 87.7579 35.9192C87.2077 35.8457 86.5714 35.7961 86.0554 35.7127C85.8937 35.697 85.7043 35.6899 85.4953 35.6916C85.293 35.6866 85.3015 35.649 85.5342 35.6025C85.6648 35.5783 85.798 35.555 85.9331 35.5328C86.5291 35.5291 86.7718 35.6404 87.4519 35.6095L87.7671 35.4628C87.8524 35.4605 87.9351 35.4596 88.0148 35.4601L89.1551 35.5197C89.2501 35.5227 89.3241 35.5329 89.3685 35.5491C89.413 35.5654 89.4263 35.587 89.4068 35.6116C89.3991 35.6417 89.4148 35.6692 89.4534 35.6933C89.4782 35.7102 89.4623 35.7326 89.4091 35.7557C89.2892 35.8077 89.4431 35.8153 89.5402 35.8284C89.5651 35.8297 89.5937 35.8295 89.6245 35.828C89.6552 35.8264 89.6876 35.8235 89.7195 35.8194C89.7515 35.8153 89.7825 35.8101 89.8107 35.804C89.8389 35.7979 89.8637 35.7912 89.8838 35.7841C90.055 35.7346 90.2047 35.6824 90.3729 35.6278C90.2535 35.5756 90.394 35.4898 90.2076 35.4425C90.1868 35.4331 90.1785 35.4216 90.1831 35.4087C90.1878 35.3959 90.2054 35.3819 90.2348 35.3677C90.3107 35.3311 90.3469 35.2955 90.3396 35.2643C90.3324 35.2331 90.282 35.2076 90.1936 35.1902L90.1829 35.1715C90.4162 35.1085 90.3543 35.0525 90.446 34.9859L90.6704 34.9423C91.2286 34.8374 91.2296 34.8391 91.7103 34.843C91.8071 34.8031 91.684 34.797 91.5917 34.7925L90.8187 34.7477C90.3132 34.7178 89.7931 34.6971 89.2284 34.6858C88.6638 34.6744 88.0343 34.6368 87.4507 34.6096C87.4212 34.6075 87.3986 34.6033 87.3849 34.5975C87.3712 34.5916 87.3666 34.5842 87.3717 34.5759C87.3949 34.5669 87.4253 34.5583 87.4606 34.5505C87.4959 34.5428 87.5352 34.5363 87.5756 34.5313C87.7613 34.5074 87.9519 34.492 88.1498 34.472L88.5188 34.4372L88.6323 34.3915C88.7062 34.3637 88.7566 34.3298 88.8549 34.3098C88.9359 34.2949 89.0238 34.2836 89.1095 34.277C89.1951 34.2705 89.2755 34.2689 89.342 34.2726C89.5266 34.2817 89.6937 34.2949 89.8699 34.3069C90.0462 34.3189 90.1434 34.332 90.2963 34.3379C90.6068 34.3406 90.907 34.3476 91.1954 34.3591C91.4384 34.3862 91.6631 34.4183 91.8682 34.4552C91.9961 34.4698 92.1157 34.4873 92.3341 34.4683C92.4378 34.451 92.5271 34.4284 92.5864 34.4043C92.6457 34.3803 92.6711 34.3564 92.658 34.3369C92.6463 34.3217 92.6131 34.3096 92.5616 34.3018C92.5101 34.2941 92.442 34.2909 92.3637 34.2926C92.1444 34.2898 91.9417 34.2803 91.7595 34.2644C91.506 34.2356 91.1974 34.2232 90.8516 34.2279C90.7344 34.2321 90.6558 34.2166 90.5532 34.2115C90.4507 34.2065 90.3638 34.1939 90.2494 34.2032C89.8942 34.227 89.7239 34.1905 89.511 34.1667C89.439 34.1562 89.3943 34.1392 89.382 34.1175C89.3697 34.0959 89.3901 34.0705 89.4412 34.0441C89.5394 33.9915 89.6596 33.9386 89.7999 33.8863C89.8721 33.8606 89.9645 33.8362 90.0701 33.815C90.1756 33.7938 90.2913 33.7763 90.4081 33.7641C90.478 33.7319 90.5153 33.7002 90.5166 33.6719C90.5179 33.6437 90.4832 33.6197 90.4156 33.6022C90.2433 33.5623 90.0906 33.5216 89.7046 33.5439C89.5231 33.5525 89.3523 33.5541 89.199 33.5488C88.859 33.5415 88.4667 33.5575 88.0592 33.5952C87.9538 33.6048 87.8501 33.6114 87.7514 33.6147C87.0469 33.6379 86.3757 33.6495 85.7025 33.6576C85.3459 33.6615 84.9864 33.6603 84.6141 33.6718C83.7411 33.6965 82.9464 33.6838 82.1038 33.6919C81.6625 33.696 81.2674 33.6793 80.9394 33.6427C80.8756 33.6304 80.8207 33.6161 80.7755 33.5998C80.9929 33.5573 81.2316 33.5235 81.4689 33.5019C81.7061 33.4803 81.934 33.4715 82.1306 33.4764C82.2386 33.4883 82.3783 33.4905 82.534 33.4827C82.6897 33.4748 82.8554 33.4574 83.0124 33.4322L82.5558 33.4179C82.2529 33.4112 81.9428 33.4092 81.6483 33.3996C81.1804 33.3831 80.7467 33.3567 80.2622 33.3461C79.871 33.3363 79.521 33.3112 79.223 33.2716C79.0078 33.2427 78.762 33.2223 78.4906 33.2106C78.2976 33.2044 78.2976 33.2044 78.1743 33.1454C78.2722 33.1072 78.3987 33.1018 78.5179 33.1011C79.2325 33.077 79.9125 33.0728 80.5441 33.0885C80.8628 33.0899 81.1456 33.1061 81.3788 33.1363C81.4358 33.1491 81.5819 33.1431 81.6992 33.1389C82.0668 33.1326 82.4181 33.1344 82.7489 33.1444C83.2063 33.1609 83.7157 33.157 84.2574 33.1327C84.3601 33.1031 84.2419 33.1055 84.236 33.0953C83.8165 33.0762 83.4053 33.0543 82.9775 33.0381C82.8605 33.0324 82.7355 33.0295 82.6038 33.0296C82.1122 33.0396 81.7026 33.0119 81.4323 32.9503C81.4187 32.9264 81.2409 32.9292 81.1623 32.9138C81.1236 32.9004 81.0979 32.8846 81.0858 32.867C81.2003 32.823 81.3298 32.8227 81.4294 32.8227C81.7186 32.8276 81.9967 32.8369 82.2626 32.8506C82.5098 32.8636 82.7833 32.867 83.0759 32.8609C83.2918 32.855 83.4764 32.8641 83.6943 32.8616C83.8125 32.8564 83.9348 32.848 84.0588 32.8366C83.9208 32.8059 83.7331 32.787 83.509 32.7813C83.3391 32.763 83.1266 32.7575 83.0995 32.7098C83.1797 32.6757 83.2691 32.6751 83.3409 32.6787C83.4904 32.6785 83.6347 32.6807 83.7732 32.6851C84.0669 32.6948 84.3848 32.6949 84.7204 32.6855C84.897 32.682 85.0647 32.683 85.2205 32.6887C85.5737 32.6962 85.9121 32.7129 86.2355 32.7205C86.8978 32.7284 87.5019 32.7566 88.1383 32.7714C88.28 32.7751 88.4069 32.788 88.5936 32.7658C88.7803 32.7435 88.7886 32.7406 88.8107 32.7268C88.8629 32.7038 88.8787 32.6814 88.8549 32.6644C88.8179 32.6486 88.7457 32.6397 88.6513 32.6395C88.0824 32.6142 87.5428 32.5788 87.0359 32.5333C86.8128 32.5242 86.6173 32.5056 86.4563 32.4782C86.3286 32.4593 86.1771 32.4468 86.0065 32.4411C85.7585 32.4274 85.5 32.4175 85.2319 32.4111C85.1072 32.4078 85.0012 32.3976 84.92 32.3814C84.8389 32.3652 84.7843 32.3432 84.7595 32.3166L85.0881 32.2286C85.1397 32.2245 85.1909 32.2209 85.2415 32.2179L87.9689 32.2814L88.239 32.2831C88.5351 32.2779 88.6074 32.2649 88.8882 32.1629C88.2474 32.1389 87.7436 32.0689 87.4271 31.96C87.5031 31.9483 87.5811 31.9382 87.6592 31.9301C88.1714 31.9043 88.6555 31.8975 89.093 31.9098C89.3529 31.911 89.6201 31.9077 89.8882 31.906C89.8098 31.8558 89.5093 31.8708 89.3135 31.8594C88.8456 31.8417 88.4318 31.8051 88.0854 31.7508C87.966 31.7297 87.8166 31.7161 87.644 31.7108C87.4713 31.709 87.3271 31.6962 87.2238 31.6735C87.1206 31.6508 87.0614 31.6189 87.0516 31.5806C87.0353 31.5459 87.0002 31.5137 86.9469 31.4844C87.0413 31.4428 87.191 31.403 87.3682 31.3725C87.5453 31.3419 87.7376 31.3227 87.9089 31.3184C88.2748 31.3012 88.6542 31.2732 89.0377 31.235C89.2287 31.2158 89.4159 31.2047 89.5873 31.2026C89.7385 31.2009 89.9103 31.187 90.0766 31.1629C90.2428 31.1389 90.3944 31.106 90.5082 31.0692C90.6618 31.0239 90.8051 30.978 90.9484 30.9321C91.0917 30.8862 91.258 30.8282 91.4253 30.7719C91.5728 30.7631 91.7165 30.7574 91.8543 30.755C91.9615 30.757 92.0866 30.7509 92.2148 30.7373C92.3431 30.7237 92.4691 30.7031 92.578 30.6781C92.5142 30.6535 92.4419 30.6317 92.3659 30.6031C92.4703 30.5654 92.546 30.5269 92.5884 30.49C92.6308 30.4531 92.639 30.4185 92.6124 30.3885C92.5969 30.3612 92.7105 30.3155 92.7497 30.2794C92.8002 30.2482 92.8097 30.2192 92.7769 30.196C92.7441 30.1728 92.6706 30.1566 92.5661 30.1495C92.4363 30.1364 92.3308 30.1166 92.2537 30.0911C92.2282 30.0844 92.2152 30.0753 92.2159 30.0646C92.2166 30.0539 92.2311 30.0419 92.2578 30.0297C92.2846 30.0175 92.3229 30.0055 92.3692 29.9949C92.4155 29.9842 92.4683 29.9752 92.5228 29.9686C92.6899 29.95 92.8558 29.9379 93.011 29.9331C93.2784 29.9242 93.5344 29.9187 93.7789 29.9164C94.0494 29.913 94.3503 29.8918 94.6511 29.8551C94.9204 29.8204 95.1619 29.7893 95.2935 29.723C95.4252 29.6566 95.6357 29.6588 95.7976 29.6105C95.7067 29.5669 95.5451 29.5367 95.329 29.5228C95.1877 29.5178 95.0697 29.5048 94.9826 29.4845C94.8956 29.4643 94.8414 29.4372 94.8235 29.4051L95.315 29.2705C95.7075 29.2071 95.9246 29.2559 96.3487 29.2305L95.9118 29.1808C95.903 29.1759 95.8997 29.1701 95.9021 29.1637C95.9445 29.0632 96.012 29.0417 96.4587 28.986L96.7094 28.9536L97.1062 28.9153C97.1698 28.8947 97.2137 28.8732 97.2337 28.853C97.2537 28.8328 97.249 28.8145 97.22 28.8001C97.1619 28.7758 97.1442 28.7447 97.1686 28.7098C97.2071 28.6867 97.2103 28.6653 97.1776 28.6495C97.1449 28.6337 97.0784 28.6244 96.9897 28.6232C96.9189 28.6213 96.9136 28.5946 96.8751 28.5794C96.8368 28.5586 96.7713 28.5426 96.683 28.5325C96.5947 28.5224 96.4857 28.5185 96.3634 28.5211C96.0029 28.5232 95.6642 28.5153 95.3534 28.4977L95.4091 28.4905C95.0851 28.506 94.7822 28.5079 94.5151 28.4961C94.2475 28.4812 93.9041 28.4907 93.6198 28.4817C93.3884 28.4838 93.2122 28.4632 93.1287 28.4243C93.0477 28.3872 92.7536 28.3959 92.5284 28.403C92.395 28.4076 92.2661 28.4095 92.143 28.4088C91.9777 28.4004 91.7712 28.4083 91.5577 28.4312C91.4936 28.4383 91.4305 28.442 91.3744 28.442C90.8317 28.4517 90.29 28.463 89.7546 28.468C89.631 28.4651 89.4861 28.4718 89.3368 28.4871C89.2741 28.4938 89.2131 28.4966 89.1619 28.4951C88.3159 28.4798 87.3613 28.5187 86.532 28.4977C86.4314 28.4927 86.3202 28.4917 86.2013 28.4946C85.9341 28.507 85.7021 28.499 85.5405 28.4719C85.4532 28.4575 85.3415 28.4496 85.2122 28.4486C85.0829 28.4476 84.939 28.4537 84.7897 28.4663C84.5412 28.4831 84.3115 28.4849 84.1249 28.4716C83.761 28.4593 83.3784 28.4542 82.9799 28.4564C82.8578 28.4586 82.7505 28.4538 82.6663 28.4425C82.5821 28.4312 82.5232 28.4136 82.4942 28.3911C82.592 28.3529 82.699 28.3482 82.8006 28.3516C83.1944 28.3429 83.5871 28.3325 83.9735 28.3284C84.3194 28.3166 84.6512 28.3131 84.9642 28.3177C85.1196 28.3229 85.3135 28.311 85.5036 28.2847C85.7366 28.2514 85.9766 28.2348 86.175 28.2384C86.3221 28.2393 86.4774 28.2364 86.6386 28.2298C86.7418 28.2219 86.8475 28.2082 86.945 28.1903C86.9837 28.1825 87.0258 28.176 87.0687 28.1711C87.1115 28.1662 87.1541 28.1631 87.1937 28.1619C87.2334 28.1608 87.2693 28.1616 87.2991 28.1644C87.3288 28.1671 87.3518 28.1718 87.3666 28.178C87.5159 28.2301 87.8496 28.2035 88.1354 28.1978C88.5637 28.1096 88.8824 28.1618 89.2827 28.112C89.3143 28.1087 89.3455 28.1067 89.3744 28.1062C89.4032 28.1056 89.429 28.1065 89.4503 28.1087C90.2249 28.1387 91.1277 28.1137 91.9409 28.124C92.0306 28.1256 92.1347 28.1204 92.2414 28.1091C92.9386 28.0343 93.6089 28.0131 94.1213 28.0496C94.1837 28.0529 94.2546 28.053 94.3309 28.05C94.6812 28.0203 95.0162 28.0084 95.308 28.0155C95.7652 28.0132 96.2048 28.015 96.6694 28.0082C96.9896 27.9984 97.2706 28.0088 97.484 28.0384C97.4908 28.0504 97.633 28.0375 97.742 28.0363C97.8046 28.0062 97.8589 27.9791 97.9235 27.9525C97.9813 27.9196 98.0678 27.8863 98.1771 27.8549C98.2865 27.8234 98.4161 27.7946 98.5574 27.7703C98.7988 27.7392 98.8229 27.694 98.654 27.6774C98.2185 27.6224 97.671 27.5999 97.0516 27.6115C96.5338 27.6125 96.0067 27.6146 95.4816 27.6201C95.1753 27.6249 94.8524 27.6354 94.5544 27.6373C94.4538 27.6413 94.3505 27.6473 94.2456 27.6551C94.1168 27.6665 93.9918 27.6727 93.8772 27.6734C93.5093 27.6638 93.0988 27.6721 92.6652 27.698C92.5063 27.7036 92.3538 27.7055 92.2099 27.7036C91.8694 27.6966 91.5002 27.7018 91.1122 27.719C90.8711 27.7287 90.6372 27.7338 90.4131 27.7341C90.334 27.7352 90.2696 27.7271 90.1933 27.7332C89.5224 27.7978 89.0473 27.7511 88.4434 27.776C88.1499 27.7829 87.8696 27.7829 87.6062 27.776C87.0922 27.7764 86.5639 27.7834 86.0234 27.7972C85.3087 27.8199 84.6464 27.812 83.9639 27.8214C83.8292 27.8233 83.6991 27.823 83.5746 27.8204C82.969 27.803 82.3112 27.8067 81.6172 27.8314C81.4597 27.8349 81.3181 27.8306 81.2015 27.8185C81.0849 27.8065 80.9957 27.7871 80.9395 27.7615C80.9158 27.7439 80.9312 27.7211 80.9828 27.6974C81.0684 27.6672 81.1651 27.6376 81.2713 27.609L85.1341 27.5133C85.2964 27.5083 85.4546 27.5056 85.608 27.5053C86.0591 27.5044 86.5241 27.497 87.0007 27.483C87.4717 27.4698 87.9216 27.4721 88.3778 27.4682C88.5122 27.4668 88.6501 27.4637 88.7911 27.4588C89.7437 27.4197 90.6726 27.3959 91.5713 27.3874C91.9494 27.3862 92.3578 27.3683 92.7433 27.3625C93.1287 27.3567 93.6558 27.3546 94.113 27.3523L95.5286 27.3526C95.807 27.3515 96.0781 27.3549 96.3483 27.3567C96.676 27.2322 96.789 27.203 97.2264 27.1484C97.3761 27.1283 97.5283 27.1163 97.6652 27.1138C98.0994 27.1236 98.6442 27.0827 99.056 27.0881C99.3045 27.0854 99.5153 27.0992 99.6669 27.1282C99.7985 27.1509 99.949 27.1688 100.116 27.1818C100.574 27.0753 100.614 27.0061 100.27 26.9792C100.177 26.9729 100.048 26.9748 99.9807 26.9616C99.9421 26.9535 99.8893 26.9489 99.8266 26.9481C99.7638 26.9473 99.6929 26.9503 99.6193 26.957C99.3871 26.9744 99.1694 26.9785 98.9881 26.9689C98.8175 26.9561 98.6084 26.9566 98.381 26.9703C98.2138 26.9919 98.0669 26.9615 97.9223 26.9527C97.7778 26.9439 97.6592 26.9281 97.4334 26.9517C97.392 26.9564 97.351 26.9592 97.3134 26.96C97.2758 26.9607 97.2426 26.9593 97.2165 26.9559C96.974 26.9407 96.6846 26.9423 96.3719 26.9606C95.8922 26.9786 95.4422 26.9792 95.0374 26.9626C94.795 26.948 94.5884 26.9222 94.4256 26.886C94.3812 26.874 94.3153 26.8667 94.2342 26.865C93.8269 26.8725 93.3847 26.9009 92.936 26.9483C92.767 26.9672 92.5981 26.9822 92.4332 26.993C92.0941 27.0168 91.7661 27.0301 91.459 27.0326C91.0127 27.033 90.548 27.0422 90.0691 27.06C89.7736 27.07 89.4888 27.0736 89.2182 27.071C88.94 27.0697 88.643 27.0773 88.3339 27.0936C88.0265 27.1068 87.7557 27.0992 87.5539 27.0716C87.4875 27.0568 87.434 27.0391 87.3944 27.019C87.8445 26.9537 88.3099 26.9205 88.6971 26.9261C88.8441 26.9218 88.9662 26.9261 89.1212 26.9007L89.126 26.9092C89.1569 26.9147 89.2034 26.916 89.2567 26.9128C89.3101 26.9097 89.3665 26.9023 89.4153 26.892C89.3969 26.8597 89.3794 26.829 89.3668 26.8069C89.0718 26.8108 88.7854 26.8104 88.509 26.8059C88.276 26.7994 87.9598 26.8566 87.7581 26.8351C87.3648 26.862 87.1144 26.8248 86.7616 26.8355C86.4089 26.8463 86.0204 26.8817 85.6677 26.8924C85.3599 26.8983 85.061 26.8996 84.7728 26.8963C84.6733 26.8916 84.5586 26.8927 84.4357 26.8995C84.263 26.9123 84.1024 26.9145 83.9722 26.9057C83.842 26.8969 83.7477 26.8776 83.6998 26.8499C83.7449 26.824 83.8056 26.7906 83.8755 26.756C83.7468 26.7275 83.5512 26.7156 83.3179 26.7218L82.9881 26.7205C82.9008 26.7212 82.834 26.7135 82.8016 26.699C82.7692 26.6844 82.7736 26.6642 82.8141 26.6424C83.4393 26.5325 83.4623 26.5204 83.9212 26.5911L84.5305 26.5582L84.5202 26.5577ZM76.2793 26.8594L76.3257 26.8535L76.2793 26.8594ZM0.35221 38.5459L0.362878 38.5646L0.35124 38.5442L0.249111 38.5573L0.242322 38.5454L0.35221 38.5459ZM15.1829 30.3344C15.3272 30.3139 15.473 30.2951 15.6193 30.2781C15.6576 30.2755 15.6935 30.2749 15.7238 30.2764C15.7542 30.2779 15.7781 30.2814 15.7937 30.2867C15.8053 30.3072 15.7237 30.3213 15.6494 30.3309C15.5557 30.3438 15.46 30.352 15.3721 30.3546C15.2843 30.3573 15.2074 30.3543 15.1496 30.346L15.0656 30.3385L15.1829 30.3344ZM89.5473 35.3156C89.4522 35.319 89.3621 35.3196 89.2791 35.3173C88.9108 35.3007 88.5583 35.2767 88.1807 35.2614C87.7044 35.2225 87.157 35.2067 86.5592 35.2145C86.3256 35.2183 86.1283 35.2057 85.9902 35.1781C85.9076 35.1633 85.8009 35.1547 85.6768 35.1527L84.0962 35.1078C83.9985 35.0985 83.9141 35.0854 83.8448 35.0689C83.9841 35.051 84.077 35.039 84.1327 35.0318C84.2483 35.0298 84.3477 35.0353 84.4208 35.0477C84.4994 35.0687 84.6323 35.0771 84.793 35.071C84.9552 35.066 85.1134 35.0633 85.2668 35.063C85.5565 35.064 85.8481 35.0685 86.1387 35.0712C86.2518 35.1298 86.5855 35.1032 86.8713 35.0975L87.0921 35.1001C87.8138 35.1304 88.5032 35.1722 89.1569 35.2252C89.2832 35.2341 89.3921 35.2484 89.48 35.2676C89.5132 35.2826 89.5238 35.3012 89.5111 35.3221L89.5575 35.3161L89.5473 35.3156ZM57.3202 40.9139C57.1451 40.9179 56.9628 40.9261 56.7759 40.9383C56.6319 40.9509 56.4915 40.9585 56.3601 40.9609C55.624 40.974 54.857 41.0043 54.0693 41.0514C53.9663 41.0585 53.8673 41.062 53.7761 41.0618L53.1314 41.0498C52.9282 41.0431 52.9244 41.0363 53.0723 40.9459C53.195 40.9284 53.3191 40.9124 53.4437 40.898C53.518 40.8885 53.6387 40.8729 53.667 40.8875C53.8392 40.9275 54.1534 40.9016 54.4177 40.8931C55.1828 40.8713 55.9718 40.8391 56.7442 40.8126C56.9075 40.8062 57.0657 40.8029 57.2171 40.8029C57.311 40.8015 57.3967 40.8041 57.4706 40.8104C57.4921 40.8111 57.5102 40.813 57.5236 40.816C57.5369 40.819 57.5452 40.823 57.548 40.8279C57.5507 40.8327 57.5478 40.8382 57.5395 40.844C57.5312 40.8498 57.5176 40.8558 57.4997 40.8615C57.4364 40.8816 57.3634 40.9009 57.283 40.9187L57.3202 40.9139ZM51.7158 27.799L50.9621 27.7883C50.8718 27.7871 50.7951 27.7751 50.6984 27.7802C50.1823 27.7966 49.7045 27.792 49.2853 27.7667C49.1425 27.7564 48.9755 27.7544 48.7934 27.7607C48.2359 27.7793 47.7099 27.7801 47.2298 27.763C46.9195 27.7595 46.6291 27.748 46.3629 27.7285C46.3424 27.7239 46.3296 27.7178 46.3254 27.7104C46.3212 27.7031 46.3257 27.6947 46.3386 27.6859C46.342 27.6803 46.3511 27.6743 46.3654 27.6683C46.3796 27.6623 46.3987 27.6564 46.4212 27.6511C46.4438 27.6457 46.4692 27.641 46.4959 27.6374C46.5226 27.6337 46.5499 27.6311 46.5758 27.6297C46.9121 27.6033 47.2313 27.5941 47.5074 27.6029C47.7634 27.6133 48.0391 27.6164 48.33 27.612C48.6084 27.6109 48.7973 27.645 49.1413 27.6189C49.2868 27.6104 49.4152 27.6132 49.5047 27.6269C49.6849 27.6498 49.9364 27.651 50.2144 27.6305C50.3808 27.6202 50.5398 27.6157 50.6854 27.6174C51.0385 27.6248 51.376 27.6399 51.7032 27.6543C51.8063 27.6577 51.9168 27.6582 52.0329 27.6557L53.6714 27.6273C54.0652 27.6186 54.4579 27.6082 54.8443 27.6041C55.1603 27.5952 55.4544 27.598 55.7162 27.6124C55.9953 27.6275 56.2997 27.6337 56.6237 27.6307C57.1268 27.639 57.627 27.6421 58.1746 27.641C58.5239 27.6417 58.8814 27.6395 59.2464 27.6327C59.431 27.6239 59.5877 27.6311 59.6864 27.6527C59.7464 27.6706 59.8876 27.6561 60.0049 27.6519C60.6303 27.612 61.2168 27.6025 61.7234 27.6242C61.7881 27.6277 61.8592 27.629 61.935 27.628C62.423 27.6272 62.9285 27.6224 63.397 27.6223C63.5203 27.624 63.6364 27.6287 63.7437 27.6362C63.7323 27.6484 63.6995 27.6616 63.6522 27.6732C63.605 27.6847 63.5469 27.6937 63.49 27.6981C63.0469 27.7323 62.6191 27.7504 62.2246 27.7515C61.5678 27.7472 60.8799 27.757 60.168 27.7808C59.6155 27.8048 59.1118 27.7998 58.6943 27.766C58.3679 27.7408 57.9434 27.7503 57.4935 27.7928C57.301 27.8131 57.1142 27.8212 56.9586 27.8161C56.8088 27.8093 56.6369 27.8109 56.4529 27.8209C56.0652 27.8399 55.6923 27.8487 55.3416 27.8472C54.9987 27.8402 54.6788 27.8211 54.3266 27.8153C53.9745 27.8095 53.4381 27.8128 53.0039 27.803C52.5697 27.7931 52.1403 27.7918 51.7158 27.799ZM82.9453 26.8028C82.9055 26.8554 82.7647 26.8882 82.6132 26.9023C82.0909 26.9646 81.5746 26.9911 81.1509 26.9774C80.922 26.9582 80.6169 26.9656 80.2955 26.9981C79.9212 27.0318 79.5714 27.0374 79.3077 27.0139C79.2431 27.0098 79.1936 27.0011 79.1637 26.9886C79.1579 26.9783 79.1472 26.9596 79.1453 26.9562C79.173 26.9476 79.207 26.9396 79.2446 26.9328C79.2823 26.9261 79.3225 26.9207 79.3623 26.9173L81.0923 26.857L81.3937 26.8437C81.9444 26.809 82.4691 26.7951 82.9453 26.8028ZM79.5425 27.6363C79.2725 27.7223 79.2716 27.7206 79.1332 27.7402C78.4659 27.8219 77.7991 27.8659 77.212 27.8672C77.0816 27.8669 76.9708 27.8586 76.8892 27.843C76.8472 27.8409 76.8205 27.8341 76.8149 27.8242C76.8092 27.8143 76.8252 27.8021 76.8592 27.7902L77.0739 27.7296C77.4638 27.7034 77.8481 27.6825 78.2245 27.6672C78.6627 27.6491 79.0511 27.6484 79.5054 27.6411L79.5425 27.6363ZM57.3525 40.5331C57.101 40.6515 57.1 40.6498 56.6788 40.6803C56.3853 40.7019 56.1006 40.7146 55.8331 40.718C55.5063 40.7217 55.1712 40.7284 54.8453 40.7338C54.7658 40.7376 54.6983 40.7345 54.6561 40.725C54.6139 40.7156 54.5999 40.7006 54.6169 40.6828C54.6597 40.6636 54.7266 40.6449 54.8067 40.6299C54.8869 40.615 54.9756 40.6045 55.0584 40.6003L55.2362 40.5975C55.4521 40.5916 55.6764 40.5828 55.885 40.5815C56.0203 40.5864 56.1771 40.5826 56.3431 40.5704C56.5091 40.5582 56.6797 40.538 56.8417 40.5112L57.3525 40.5331ZM78.1991 26.9575C78.1319 26.978 78.056 26.9976 77.9732 27.0159C77.6528 27.0664 77.3137 27.0952 77.0223 27.0964C76.8845 27.0995 76.7585 27.0884 76.6183 27.1046C76.3667 27.1263 76.1229 27.1379 75.9001 27.1387C75.9001 27.1387 75.8376 27.1339 75.8171 27.1329L75.7744 27.058C75.8799 27.0406 75.9899 27.0264 76.0994 27.0161C76.4668 26.9962 76.8279 26.9825 77.1879 26.9672C77.548 26.9519 77.6736 26.9448 77.909 26.9382C78.0141 26.9419 78.1112 26.9483 78.1991 26.9575ZM86.1557 36.2738L85.6749 36.4272C85.5193 36.4405 85.3739 36.4429 85.2609 36.4341C85.1479 36.4252 85.0735 36.4055 85.0489 36.3781C85.0093 36.3652 85.0053 36.3462 85.0378 36.325C85.0703 36.3037 85.1368 36.2819 85.2232 36.2642C85.3064 36.2431 85.4014 36.2243 85.5023 36.2088C85.6032 36.1932 85.7079 36.1814 85.8098 36.174L86.1557 36.2738ZM82.1524 35.5101C82.4669 35.4841 82.7677 35.4735 83.0318 35.479C83.1982 35.4942 83.4236 35.4894 83.6619 35.4654C84.0953 35.4177 84.5131 35.4045 84.8271 35.4286C84.8271 35.4286 84.8388 35.449 84.892 35.455C84.9452 35.4609 84.7341 35.4753 84.6877 35.4813C84.3472 35.4959 84.0047 35.5072 83.7087 35.5124C83.5249 35.5122 83.3305 35.517 83.1288 35.5268C82.8513 35.542 82.5881 35.5469 82.3496 35.5414C82.3496 35.5414 82.2573 35.5368 82.1534 35.5118L82.1524 35.5101ZM48.5673 27.5211C48.7175 27.4922 48.8804 27.4687 49.0437 27.4524C49.2071 27.4361 49.3666 27.4274 49.5104 27.4269C49.6206 27.4254 49.7097 27.4331 49.7637 27.4486C49.8176 27.4642 49.8334 27.4868 49.8085 27.5128C49.6971 27.5272 49.5485 27.5463 49.4649 27.5571C49.1753 27.5561 48.9282 27.5422 48.5673 27.5211ZM20.4492 29.9554C20.5697 29.9321 20.7025 29.9143 20.8324 29.904C20.9622 29.8938 21.084 29.8914 21.1836 29.8973C21.2349 29.8998 21.2001 29.9262 21.2089 29.9415C21.2145 29.945 21.2145 29.9493 21.2087 29.9541C21.2028 29.9588 21.1915 29.9637 21.1758 29.9683C21.1601 29.973 21.1406 29.9772 21.1194 29.9804C21.0982 29.9837 21.0761 29.9859 21.0553 29.9869C20.9245 29.9969 20.8011 29.9999 20.696 29.9956C20.591 29.9913 20.5075 29.9798 20.4531 29.9622L20.4492 29.9554ZM18.5653 30.2878C18.5839 30.2741 18.6236 30.2598 18.677 30.2475C18.7305 30.2352 18.7941 30.2258 18.8562 30.221C18.966 30.2204 19.0657 30.2242 19.1517 30.2323C19.2449 30.2386 19.1778 30.2783 19.0517 30.3019C18.9983 30.3113 18.9412 30.3187 18.885 30.3234C18.8289 30.3281 18.7751 30.33 18.7281 30.329C18.681 30.328 18.642 30.324 18.6141 30.3174C18.5862 30.3109 18.5701 30.3019 18.5672 30.2912L18.5653 30.2878ZM73.3084 27.1035C73.5894 27.0544 73.8058 27.0668 74.0438 27.0471C74.2817 27.0274 74.3404 27.0253 74.3085 27.0568C74.2766 27.0883 74.1135 27.082 74.0113 27.0951C73.8733 27.1126 73.7345 27.1226 73.6103 27.1241C73.4862 27.1256 73.3816 27.1184 73.3084 27.1035ZM14.7378 35.3991C14.8866 35.3881 15.0325 35.3803 15.1731 35.3759C15.1916 35.3804 15.2032 35.3864 15.2072 35.3934C15.2112 35.4004 15.2075 35.4084 15.1964 35.4167C15.1964 35.4167 15.101 35.4418 15.0453 35.449C14.84 35.4736 14.8299 35.4384 14.7378 35.3991ZM-6.3043 39.967C-6.40506 40.0001 -6.45204 40.0226 -6.53271 40.0384C-6.56976 40.044 -6.60808 40.048 -6.64479 40.0502C-6.6815 40.0524 -6.71565 40.0527 -6.74476 40.0512C-6.78021 40.0416 -6.78852 40.027 -6.76804 40.0103C-6.76804 40.0103 -6.66536 39.9806 -6.62627 39.9792C-6.51477 39.9722 -6.4067 39.9681 -6.3043 39.967ZM78.0927 26.8231C78.3063 26.7956 78.5106 26.7693 78.6585 26.8014C78.3193 26.836 78.3193 26.836 78.0927 26.8231ZM74.6335 27.1374C74.8491 27.0785 74.9757 27.0732 75.0792 27.08C75.1012 27.0817 75.1158 27.0855 75.1207 27.0908C75.1256 27.0961 75.1206 27.1026 75.1064 27.1094C75.0923 27.1162 75.0697 27.1228 75.0422 27.1284C75.0147 27.1339 74.9837 27.138 74.9539 27.14C74.8414 27.1417 74.7342 27.1408 74.6335 27.1374ZM63.5337 27.1623C63.5289 27.1538 63.5231 27.1436 63.5788 27.1364C63.5934 27.1327 63.6105 27.1296 63.6284 27.1273C63.6463 27.125 63.6644 27.1236 63.6809 27.1232C63.6809 27.1232 63.6867 27.1334 63.6906 27.1403L63.5337 27.1623ZM55.8258 41.3003L55.9498 41.3081L55.8941 41.3153L55.7471 41.3196L55.8258 41.3003ZM12.1502 30.1549C12.1966 30.1489 12.243 30.1429 12.2498 30.1549C12.2596 30.1567 12.2657 30.1594 12.2675 30.1626C12.2694 30.1659 12.267 30.1696 12.2605 30.1736C12.2605 30.1736 12.1955 30.182 12.1676 30.1856L12.1502 30.1549ZM19.3812 30.2502C19.4117 30.2496 19.4393 30.2504 19.4622 30.2526L19.4681 30.2628L19.3752 30.2748L19.3812 30.2502ZM82.3976 32.6851C82.4335 32.6789 82.4715 32.674 82.5091 32.6707L82.5555 32.6647C82.5555 32.6647 82.5056 32.6821 82.4778 32.6857C82.4499 32.6893 82.4274 32.6849 82.3976 32.6851Z" fill="#016A70"/>
</g>
<path d="M23.1193 2.6158C22.8162 2.74172 22.7031 2.98987 22.6991 3.51578V3.80467H20.7233H18.7517L18.6183 3.88615C18.3436 4.06022 18.2345 4.30466 18.3032 4.59724C18.3476 4.79353 18.5658 5.01205 18.7759 5.0639C18.99 5.11945 27.8182 5.11575 28.0525 5.0602C28.3959 4.97872 28.6383 4.64909 28.5737 4.34169C28.5414 4.17132 28.408 3.99355 28.2383 3.88985L28.101 3.80467H26.1293H24.1536V3.49726C24.1536 2.96765 24.0324 2.73061 23.7011 2.60099C23.5031 2.52691 23.3213 2.53062 23.1193 2.6158Z" fill="#016A70"/>
<path d="M16.0851 6.17886C15.8952 6.23071 15.6891 6.43441 15.6366 6.61959C15.6002 6.74922 15.6204 6.94922 15.7336 7.7455C15.8063 8.27512 15.879 8.7677 15.8911 8.83066L15.9154 8.95288H16.6184C17.277 8.95288 17.3255 8.94918 17.3255 8.88622C17.3255 8.81585 17.184 7.77883 17.1396 7.55291L17.1194 7.43439H23.4263C26.8929 7.43439 29.7292 7.4455 29.7292 7.46032C29.7292 7.47884 29.6848 7.79735 29.6282 8.17141C29.5717 8.54548 29.5272 8.8714 29.5272 8.90103C29.5272 8.94177 29.6565 8.95288 30.2343 8.95288C30.9333 8.95288 30.9413 8.95288 30.9575 8.8677C30.9696 8.82325 31.0424 8.33067 31.1232 7.77883C31.2444 6.927 31.2605 6.74552 31.2201 6.61219C31.1676 6.4233 30.9575 6.23071 30.7474 6.17516C30.5535 6.12701 16.2709 6.13071 16.0851 6.17886Z" fill="#016A70"/>
<path d="M17.6494 20.9636C17.6494 21.0673 17.9322 22.9525 17.9605 23.0155C18.013 23.1562 18.1464 23.2895 18.2999 23.3599C18.4534 23.434 18.5342 23.434 23.4796 23.4266L28.5058 23.4154L28.6512 23.3117C28.732 23.2562 28.829 23.1599 28.8613 23.1006C28.9138 23.0117 29.2047 21.2044 29.2047 20.9785C29.2047 20.9229 29.1441 20.9155 28.5017 20.9155C27.8068 20.9155 27.7987 20.9155 27.7785 20.997C27.7664 21.0451 27.726 21.3192 27.6856 21.6118L27.6129 22.1377L23.4311 22.1303L19.2453 22.1192L19.1565 21.5266C19.108 21.2007 19.0676 20.9303 19.0676 20.9229C19.0635 20.9192 18.7443 20.9155 18.3565 20.9155C17.7908 20.9155 17.6494 20.9266 17.6494 20.9636Z" fill="#016A70"/>
<path d="M21.8208 9.18835C21.4918 9.32249 21.3641 9.46303 20.984 10.1018C20.7221 10.5426 20.6422 10.6959 20.6582 10.7534C20.671 10.8077 20.9425 11.0025 21.6867 11.4912C22.5554 12.0598 22.7087 12.146 22.7662 12.1204C22.8078 12.1013 22.9738 11.8266 23.2006 11.3986C23.4018 11.0185 23.5807 10.7119 23.5935 10.7183C23.619 10.7247 24.4143 12.2354 24.4111 12.2737C24.4111 12.2833 24.2451 12.3887 24.0438 12.5133C23.6382 12.7528 23.5583 12.8359 23.6158 12.9413C23.635 12.9796 23.6829 13.0148 23.7212 13.0211C23.9257 13.0659 26.3435 13.3278 26.3946 13.3118C26.4266 13.3022 26.4904 13.2128 26.5384 13.1106C27.2602 11.5998 27.7361 10.5586 27.7361 10.4979C27.7361 10.4468 27.7105 10.4085 27.6594 10.3861C27.5924 10.3542 27.5317 10.3765 27.1771 10.565C26.8546 10.7374 26.7651 10.7726 26.7428 10.7374C26.7268 10.7119 26.5671 10.4372 26.3882 10.1242C26.1295 9.67383 26.0241 9.51733 25.8804 9.38318C25.577 9.10211 25.644 9.11169 23.6989 9.11169H22.0029L21.8208 9.18835ZM23.1847 9.86867C23.2996 10.1082 23.3923 10.3222 23.3923 10.3478C23.3923 10.3893 22.7119 11.6573 22.664 11.7052C22.6449 11.7244 21.1469 10.7694 21.0511 10.6799C21.0287 10.6576 21.4759 9.86867 21.5813 9.75049C21.7985 9.49816 21.9997 9.43428 22.5522 9.43109H22.977L23.1847 9.86867ZM25.4141 9.48219C25.6696 9.56843 25.791 9.71216 26.187 10.4212C26.3914 10.7822 26.5863 11.1047 26.6214 11.1399C26.6821 11.2038 26.6853 11.2038 26.944 11.0696C27.0909 10.9962 27.2123 10.9419 27.2187 10.9482C27.2283 10.9578 26.3339 12.871 26.2701 12.97C26.2509 13.002 26.0561 12.986 25.315 12.8966C24.8008 12.8359 24.3664 12.7848 24.3473 12.7848C24.277 12.7848 24.3409 12.7177 24.5581 12.5708C24.6794 12.4846 24.7848 12.3951 24.7912 12.3664C24.7976 12.3376 24.475 11.6829 24.079 10.9067C23.6829 10.1338 23.3603 9.48539 23.3603 9.46622C23.3603 9.44067 23.6414 9.43109 24.3121 9.43109C25.0979 9.43109 25.2927 9.44067 25.4141 9.48219Z" fill="#016A70"/>
<path d="M20.8856 12.009C20.8154 12.0154 20.2085 12.057 19.5346 12.0985C18.7169 12.1496 18.2953 12.1879 18.2634 12.2135C18.2346 12.2358 18.2186 12.2933 18.225 12.3508C18.2346 12.437 18.2825 12.4754 18.6498 12.7149C18.8798 12.8618 19.0842 12.9928 19.1066 13.0056C19.1417 13.0247 19.0714 13.194 18.8127 13.737C18.6275 14.1267 18.4582 14.5195 18.439 14.6122C18.3943 14.8198 18.4199 15.1232 18.5029 15.3276C18.6147 15.6055 20.1223 18.2597 20.2564 18.4098C20.4065 18.5791 20.7132 18.742 20.9623 18.7899C21.0549 18.8059 21.304 18.8218 21.5117 18.8218C22.0706 18.8218 22.0195 18.9688 22.0195 17.3845C22.0195 16.1165 22.0163 16.0718 21.9556 16.0111C21.8949 15.9504 21.8502 15.9472 21.221 15.9472C20.8154 15.9472 20.5503 15.9345 20.5503 15.9153C20.5503 15.8578 21.3903 14.3822 21.4254 14.3822C21.4446 14.3822 21.6234 14.4461 21.8247 14.5259C22.1664 14.6601 22.1952 14.6665 22.2654 14.6217C22.3038 14.593 22.3389 14.5419 22.3389 14.5068C22.3389 14.4109 21.2913 12.0761 21.2274 12.025C21.1763 11.9867 21.1412 11.9867 20.8856 12.009ZM21.4637 13.2451C21.6809 13.737 21.8566 14.149 21.8534 14.1618C21.847 14.1778 21.7448 14.1458 21.6203 14.0915C21.3328 13.9702 21.2689 13.9734 21.1891 14.1011C21.1539 14.1586 20.8058 14.7846 20.4129 15.4905C20.0233 16.1996 19.6943 16.7777 19.6847 16.7777C19.6751 16.7777 19.4707 16.4263 19.2311 15.9983C18.7616 15.1583 18.7137 15.021 18.7648 14.708C18.7776 14.6217 18.9437 14.2321 19.1609 13.7785C19.4132 13.2515 19.5282 12.98 19.5154 12.9321C19.5058 12.8906 19.3845 12.7916 19.2024 12.6766C19.0395 12.5712 18.9245 12.4818 18.9437 12.4754C19.0076 12.453 20.6748 12.3444 20.8792 12.3508L21.0645 12.354L21.4637 13.2451ZM21.7001 17.3845V18.4705H21.3072C20.9527 18.4705 20.8984 18.4641 20.7547 18.3907C20.6652 18.3459 20.5567 18.2693 20.5087 18.2214C20.3874 18.0936 19.8763 17.1865 19.8891 17.1258C19.8955 17.0971 20.0073 16.9022 20.1318 16.6883L20.3618 16.2986H21.0294H21.7001V17.3845Z" fill="#016A70"/>
<path d="M26.6189 13.5673C25.7182 14.1167 25.5489 14.2285 25.5393 14.2956C25.5329 14.3499 25.6447 14.5926 25.8811 15.027C26.0759 15.3847 26.242 15.7041 26.2548 15.7329C26.2739 15.784 26.21 15.7872 25.4594 15.7872H24.645L24.6322 15.3719C24.6226 15.0046 24.6162 14.9535 24.5587 14.912C24.5236 14.8833 24.4725 14.8641 24.4469 14.8705C24.4054 14.8769 22.7254 16.7549 22.604 16.9274C22.5753 16.9721 22.5625 17.0296 22.5753 17.0711C22.5848 17.1127 22.9937 17.6748 23.4824 18.3264C24.3863 19.5337 24.4406 19.5912 24.5619 19.4922C24.5939 19.4635 24.6066 19.374 24.6066 19.1377V18.8215H25.2614C25.9385 18.8215 26.1653 18.7927 26.3761 18.6873C26.6348 18.5564 26.7722 18.3647 27.3663 17.3011C27.6825 16.7422 28.053 16.0906 28.1935 15.8542C28.334 15.6211 28.481 15.3528 28.5225 15.2601C28.6183 15.0525 28.6502 14.7395 28.6023 14.5128C28.5832 14.4201 28.4107 14.0209 28.2191 13.628C27.8837 12.9445 27.8645 12.9126 27.7783 12.9158C27.7208 12.9158 27.3184 13.1425 26.6189 13.5673ZM27.9859 13.858C28.1328 14.1678 28.2702 14.4968 28.2893 14.5926C28.3436 14.8513 28.2893 15.0525 28.0562 15.4518L27.8581 15.7872L27.2513 15.7808L26.6412 15.7712L26.2803 15.1005C26.0791 14.7299 25.9162 14.4137 25.9162 14.3978C25.9194 14.369 27.6601 13.2958 27.7048 13.2958C27.7144 13.2958 27.839 13.5482 27.9859 13.858ZM24.3479 16.0555C24.3863 16.1002 24.546 16.1066 26.0152 16.1066C26.9095 16.1066 27.6409 16.1193 27.6409 16.1353C27.6409 16.1577 26.67 17.8952 26.5167 18.1443C26.4815 18.2018 26.3857 18.2944 26.3059 18.3519L26.1557 18.4541L25.2934 18.4637C24.4661 18.4733 24.4278 18.4765 24.3607 18.5404C24.3128 18.5851 24.2872 18.6458 24.2872 18.7161C24.2872 18.7735 24.2777 18.8215 24.2649 18.8183C24.2234 18.8151 22.9617 17.0967 22.9617 17.0456C22.9617 17.02 23.2556 16.6623 23.6165 16.2471L24.2713 15.4933L24.2872 15.7488C24.2968 15.8926 24.3224 16.0235 24.3479 16.0555Z" fill="#016A70"/>
</svg>
